{
  "accessors": [
    {
      "bufferView": 2,
      "componentType": 5126,
      "count": 1147,
      "max": [
        0.9176766872406006,
        1.3254108428955078,
        1.024757981300354
      ],
      "min": [
        -1.412549376487732,
        -1.0457066297531128,
        -0.9969297051429749
      ],
      "type": "VEC3"
    },
    {
      "bufferView": 2,
      "byteOffset": 13764,
      "componentType": 5126,
      "count": 1147,
      "type": "VEC3"
    },
    {
      "bufferView": 3,
      "componentType": 5126,
      "count": 1147,
      "type": "VEC4"
    },
    {
      "bufferView": 1,
      "componentType": 5126,
      "count": 1147,
      "type": "VEC2"
    },
    {
      "bufferView": 1,
      "byteOffset": 9176,
      "componentType": 5126,
      "count": 1147,
      "type": "VEC2"
    },
    {
      "bufferView": 0,
      "componentType": 5125,
      "count": 4884,
      "type": "SCALAR"
    }
  ],
  "asset": {
    "generator": "fab-model-conversion",
    "version": "2.0"
  },
  "bufferViews": [
    {
      "buffer": 0,
      "byteLength": 19536,
      "target": 34963
    },
    {
      "buffer": 0,
      "byteLength": 18352,
      "byteOffset": 19536,
      "byteStride": 8,
      "target": 34962
    },
    {
      "buffer": 0,
      "byteLength": 27528,
      "byteOffset": 37888,
      "byteStride": 12,
      "target": 34962
    },
    {
      "buffer": 0,
      "byteLength": 18352,
      "byteOffset": 65416,
      "byteStride": 16,
      "target": 34962
    }
  ],
  "buffers": [
    {
      "byteLength": 83768,
      "uri": "scene.bin"
    }
  ],
  "images": [
    {
      "uri": "textures/Table01_baseColor.png"
    },
    {
      "uri": "textures/Table01_metallicRoughness.png"
    },
    {
      "uri": "textures/Table01_normal.png"
    }
  ],
  "materials": [
    {
      "doubleSided": true,
      "name": "Table01",
      "normalTexture": {
        "index": 2
      },
      "occlusionTexture": {
        "index": 1
      },
      "pbrMetallicRoughness": {
        "baseColorTexture": {
          "index": 0
        },
        "metallicRoughnessTexture": {
          "index": 1
        }
      }
    }
  ],
  "meshes": [
    {
      "name": "Table_Table01_0",
      "primitives": [
        {
          "attributes": {
            "NORMAL": 1,
            "POSITION": 0,
            "TANGENT": 2,
            "TEXCOORD_0": 3,
            "TEXCOORD_1": 4
          },
          "indices": 5,
          "material": 0,
          "mode": 4
        }
      ]
    }
  ],
  "nodes": [
    {
      "children": [
        1
      ],
      "matrix": [
        1.0,
        0.0,
        0.0,
        0.0,
        0.0,
        2.220446049250313e-16,
        -1.0,
        0.0,
        0.0,
        1.0,
        2.220446049250313e-16,
        0.0,
        0.0,
        0.0,
        0.0,
        1.0
      ],
      "name": "Sketchfab_model"
    },
    {
      "children": [
        2
      ],
      "matrix": [
        0.009999999776482582,
        0.0,
        0.0,
        0.0,
        0.0,
        0.0,
        0.009999999776482582,
        0.0,
        0.0,
        -0.009999999776482582,
        0.0,
        0.0,
        0.0,
        0.0,
        0.0,
        1.0
      ],
      "name": "TableBar.fbx"
    },
    {
      "children": [
        3
      ],
      "name": "RootNode"
    },
    {
      "children": [
        4
      ],
      "matrix": [
        -4.222695202332028e-06,
        -25.918718364765752,
        33.65644757407065,
        0.0,
        3.626478656505051e-06,
        33.65644757407047,
        25.91871836476607,
        0.0,
        -42.479835510253544,
        5.44967356151989e-06,
        -1.1329432020595502e-06,
        0.0,
        -1.1395641195122153e-06,
        35.98249435424805,
        7.481103897094727,
        1.0
      ],
      "name": "Table"
    },
    {
      "mesh": 0,
      "name": "Table_Table01_0"
    }
  ],
  "samplers": [
    {
      "magFilter": 9729,
      "minFilter": 9987,
      "wrapS": 10497,
      "wrapT": 10497
    }
  ],
  "scene": 0,
  "scenes": [
    {
      "name": "Sketchfab_Scene",
      "nodes": [
        0
      ]
    }
  ],
  "textures": [
    {
      "sampler": 0,
      "source": 0
    },
    {
      "sampler": 0,
      "source": 1
    },
    {
      "sampler": 0,
      "source": 2
    }
  ]
}
