{
  "accessors": [
    {
      "bufferView": 2,
      "componentType": 5126,
      "count": 40,
      "max": [
        0.9635592103004456,
        0.022331953048706055,
        0.018346957862377167
      ],
      "min": [
        -0.9616637825965881,
        -0.022331953048706055,
        0.002605404704809189
      ],
      "type": "VEC3"
    },
    {
      "bufferView": 2,
      "byteOffset": 480,
      "componentType": 5126,
      "count": 40,
      "type": "VEC3"
    },
    {
      "bufferView": 1,
      "componentType": 5126,
      "count": 40,
      "type": "VEC2"
    },
    {
      "bufferView": 0,
      "componentType": 5125,
      "count": 60,
      "type": "SCALAR"
    },
    {
      "bufferView": 2,
      "byteOffset": 960,
      "componentType": 5126,
      "count": 65532,
      "max": [
        0.9716106057167053,
        0.35589757561683655,
        0.4346015453338623
      ],
      "min": [
        -0.9711204767227173,
        -0.18023687601089478,
        -0.3515089154243469
      ],
      "type": "VEC3"
    },
    {
      "bufferView": 2,
      "byteOffset": 787344,
      "componentType": 5126,
      "count": 65532,
      "type": "VEC3"
    },
    {
      "bufferView": 1,
      "byteOffset": 320,
      "componentType": 5126,
      "count": 65532,
      "type": "VEC2"
    },
    {
      "bufferView": 0,
      "byteOffset": 240,
      "componentType": 5125,
      "count": 268173,
      "type": "SCALAR"
    },
    {
      "bufferView": 2,
      "byteOffset": 1573728,
      "componentType": 5126,
      "count": 65532,
      "max": [
        0.9686766266822815,
        0.35607650876045227,
        0.43165531754493713
      ],
      "min": [
        -0.9678540825843811,
        -0.18625622987747192,
        -0.3514723479747772
      ],
      "type": "VEC3"
    },
    {
      "bufferView": 2,
      "byteOffset": 2360112,
      "componentType": 5126,
      "count": 65532,
      "type": "VEC3"
    },
    {
      "bufferView": 1,
      "byteOffset": 524576,
      "componentType": 5126,
      "count": 65532,
      "type": "VEC2"
    },
    {
      "bufferView": 0,
      "byteOffset": 1072932,
      "componentType": 5125,
      "count": 266676,
      "type": "SCALAR"
    },
    {
      "bufferView": 2,
      "byteOffset": 3146496,
      "componentType": 5126,
      "count": 65532,
      "max": [
        0.9593329429626465,
        0.35503125190734863,
        0.4215713441371918
      ],
      "min": [
        -0.9588738679885864,
        -0.08684515953063965,
        -0.240912064909935
      ],
      "type": "VEC3"
    },
    {
      "bufferView": 2,
      "byteOffset": 3932880,
      "componentType": 5126,
      "count": 65532,
      "type": "VEC3"
    },
    {
      "bufferView": 1,
      "byteOffset": 1048832,
      "componentType": 5126,
      "count": 65532,
      "type": "VEC2"
    },
    {
      "bufferView": 0,
      "byteOffset": 2139636,
      "componentType": 5125,
      "count": 275319,
      "type": "SCALAR"
    },
    {
      "bufferView": 2,
      "byteOffset": 4719264,
      "componentType": 5126,
      "count": 65532,
      "max": [
        0.7495455741882324,
        0.2496645748615265,
        0.39016565680503845
      ],
      "min": [
        -0.9447070956230164,
        -0.08783447742462158,
        -0.21525195240974426
      ],
      "type": "VEC3"
    },
    {
      "bufferView": 2,
      "byteOffset": 5505648,
      "componentType": 5126,
      "count": 65532,
      "type": "VEC3"
    },
    {
      "bufferView": 1,
      "byteOffset": 1573088,
      "componentType": 5126,
      "count": 65532,
      "type": "VEC2"
    },
    {
      "bufferView": 0,
      "byteOffset": 3240912,
      "componentType": 5125,
      "count": 276330,
      "type": "SCALAR"
    },
    {
      "bufferView": 2,
      "byteOffset": 6292032,
      "componentType": 5126,
      "count": 65532,
      "max": [
        0.9436203837394714,
        0.34185245633125305,
        0.4084651470184326
      ],
      "min": [
        -0.9461732506752014,
        -0.08783519268035889,
        -0.2390340119600296
      ],
      "type": "VEC3"
    },
    {
      "bufferView": 2,
      "byteOffset": 7078416,
      "componentType": 5126,
      "count": 65532,
      "type": "VEC3"
    },
    {
      "bufferView": 1,
      "byteOffset": 2097344,
      "componentType": 5126,
      "count": 65532,
      "type": "VEC2"
    },
    {
      "bufferView": 0,
      "byteOffset": 4346232,
      "componentType": 5125,
      "count": 269550,
      "type": "SCALAR"
    },
    {
      "bufferView": 2,
      "byteOffset": 7864800,
      "componentType": 5126,
      "count": 65532,
      "max": [
        0.9687911868095398,
        0.35489416122436523,
        0.43159422278404236
      ],
      "min": [
        -0.9666357040405273,
        -0.2039758563041687,
        -0.3503067195415497
      ],
      "type": "VEC3"
    },
    {
      "bufferView": 2,
      "byteOffset": 8651184,
      "componentType": 5126,
      "count": 65532,
      "type": "VEC3"
    },
    {
      "bufferView": 1,
      "byteOffset": 2621600,
      "componentType": 5126,
      "count": 65532,
      "type": "VEC2"
    },
    {
      "bufferView": 0,
      "byteOffset": 5424432,
      "componentType": 5125,
      "count": 261252,
      "type": "SCALAR"
    },
    {
      "bufferView": 2,
      "byteOffset": 9437568,
      "componentType": 5126,
      "count": 65532,
      "max": [
        0.9593034982681274,
        0.2716234624385834,
        0.20422357320785522
      ],
      "min": [
        -0.9591484069824219,
        -0.20603305101394653,
        -0.34848809242248535
      ],
      "type": "VEC3"
    },
    {
      "bufferView": 2,
      "byteOffset": 10223952,
      "componentType": 5126,
      "count": 65532,
      "type": "VEC3"
    },
    {
      "bufferView": 1,
      "byteOffset": 3145856,
      "componentType": 5126,
      "count": 65532,
      "type": "VEC2"
    },
    {
      "bufferView": 0,
      "byteOffset": 6469440,
      "componentType": 5125,
      "count": 264717,
      "type": "SCALAR"
    },
    {
      "bufferView": 2,
      "byteOffset": 11010336,
      "componentType": 5126,
      "count": 65532,
      "max": [
        0.9671493768692017,
        0.3560746908187866,
        0.43165093660354614
      ],
      "min": [
        -0.9682930707931519,
        -0.20586520433425903,
        -0.35111385583877563
      ],
      "type": "VEC3"
    },
    {
      "bufferView": 2,
      "byteOffset": 11796720,
      "componentType": 5126,
      "count": 65532,
      "type": "VEC3"
    },
    {
      "bufferView": 1,
      "byteOffset": 3670112,
      "componentType": 5126,
      "count": 65532,
      "type": "VEC2"
    },
    {
      "bufferView": 0,
      "byteOffset": 7528308,
      "componentType": 5125,
      "count": 262200,
      "type": "SCALAR"
    },
    {
      "bufferView": 2,
      "byteOffset": 12583104,
      "componentType": 5126,
      "count": 56304,
      "max": [
        0.9636508226394653,
        -0.015437126159667969,
        -0.05434307083487511
      ],
      "min": [
        -0.9632225036621094,
        -0.16410619020462036,
        -0.22699490189552307
      ],
      "type": "VEC3"
    },
    {
      "bufferView": 2,
      "byteOffset": 13258752,
      "componentType": 5126,
      "count": 56304,
      "type": "VEC3"
    },
    {
      "bufferView": 1,
      "byteOffset": 4194368,
      "componentType": 5126,
      "count": 56304,
      "type": "VEC2"
    },
    {
      "bufferView": 0,
      "byteOffset": 8577108,
      "componentType": 5125,
      "count": 224295,
      "type": "SCALAR"
    },
    {
      "bufferView": 2,
      "byteOffset": 13934400,
      "componentType": 5126,
      "count": 1013,
      "max": [
        0.964934229850769,
        0.022354843094944954,
        0.15282472968101501
      ],
      "min": [
        -0.9607941508293152,
        -0.022354843094944954,
        -0.15282472968101501
      ],
      "type": "VEC3"
    },
    {
      "bufferView": 2,
      "byteOffset": 13946556,
      "componentType": 5126,
      "count": 1013,
      "type": "VEC3"
    },
    {
      "bufferView": 1,
      "byteOffset": 4644800,
      "componentType": 5126,
      "count": 1013,
      "type": "VEC2"
    },
    {
      "bufferView": 0,
      "byteOffset": 9474288,
      "componentType": 5125,
      "count": 5184,
      "type": "SCALAR"
    },
    {
      "bufferView": 2,
      "byteOffset": 13958712,
      "componentType": 5126,
      "count": 1146,
      "max": [
        0.9529578685760498,
        0.8988916277885437,
        0.9529581069946289
      ],
      "min": [
        -52.617454528808594,
        -0.8801149129867554,
        -0.9529581069946289
      ],
      "type": "VEC3"
    },
    {
      "bufferView": 2,
      "byteOffset": 13972464,
      "componentType": 5126,
      "count": 1146,
      "type": "VEC3"
    },
    {
      "bufferView": 1,
      "byteOffset": 4652904,
      "componentType": 5126,
      "count": 1146,
      "type": "VEC2"
    },
    {
      "bufferView": 0,
      "byteOffset": 9495024,
      "componentType": 5125,
      "count": 6144,
      "type": "SCALAR"
    },
    {
      "bufferView": 2,
      "byteOffset": 13986216,
      "componentType": 5126,
      "count": 2238,
      "max": [
        0.969670295715332,
        0.8988915681838989,
        1.5557029247283936
      ],
      "min": [
        -53.369747161865234,
        -0.8787440061569214,
        -1.091017484664917
      ],
      "type": "VEC3"
    },
    {
      "bufferView": 2,
      "byteOffset": 14013072,
      "componentType": 5126,
      "count": 2238,
      "type": "VEC3"
    },
    {
      "bufferView": 1,
      "byteOffset": 4662072,
      "componentType": 5126,
      "count": 2238,
      "type": "VEC2"
    },
    {
      "bufferView": 0,
      "byteOffset": 9519600,
      "componentType": 5125,
      "count": 12288,
      "type": "SCALAR"
    }
  ],
  "asset": {
    "generator": "fab-model-conversion",
    "version": "2.0"
  },
  "bufferViews": [
    {
      "buffer": 0,
      "byteLength": 9568752,
      "target": 34963
    },
    {
      "buffer": 0,
      "byteLength": 4679976,
      "byteOffset": 9568752,
      "byteStride": 8,
      "target": 34962
    },
    {
      "buffer": 0,
      "byteLength": 14039928,
      "byteOffset": 14248728,
      "byteStride": 12,
      "target": 34962
    }
  ],
  "buffers": [
    {
      "byteLength": 28288656,
      "uri": "scene.bin"
    }
  ],
  "extensionsUsed": [
    "KHR_materials_specular"
  ],
  "images": [
    {
      "uri": "textures/WoodFineDark004_3K_baseColor.jpeg"
    },
    {
      "uri": "textures/WoodFineDark004_3K_metallicRoughness.jpeg"
    },
    {
      "uri": "textures/FabricDenim003_3K_baseColor.jpeg"
    },
    {
      "uri": "textures/FabricDenim003_3K_metallicRoughness.png"
    }
  ],
  "materials": [
    {
      "doubleSided": true,
      "name": "WoodFineDark004_3K",
      "pbrMetallicRoughness": {
        "baseColorTexture": {
          "index": 0
        },
        "metallicFactor": 0.0,
        "metallicRoughnessTexture": {
          "index": 1
        }
      }
    },
    {
      "doubleSided": true,
      "extensions": {
        "KHR_materials_specular": {
          "specularColorFactor": [
            1.0,
            1.0,
            1.0
          ],
          "specularFactor": 0.4769640529666219
        }
      },
      "name": "FabricDenim003_3K",
      "pbrMetallicRoughness": {
        "baseColorTexture": {
          "index": 2
        },
        "metallicFactor": 0.0,
        "metallicRoughnessTexture": {
          "index": 3
        }
      }
    }
  ],
  "meshes": [
    {
      "name": "Object_0",
      "primitives": [
        {
          "attributes": {
            "NORMAL": 1,
            "POSITION": 0,
            "TEXCOORD_0": 2
          },
          "indices": 3,
          "material": 0,
          "mode": 4
        }
      ]
    },
    {
      "name": "Object_1",
      "primitives": [
        {
          "attributes": {
            "NORMAL": 5,
            "POSITION": 4,
            "TEXCOORD_0": 6
          },
          "indices": 7,
          "material": 1,
          "mode": 4
        }
      ]
    },
    {
      "name": "Object_2",
      "primitives": [
        {
          "attributes": {
            "NORMAL": 9,
            "POSITION": 8,
            "TEXCOORD_0": 10
          },
          "indices": 11,
          "material": 1,
          "mode": 4
        }
      ]
    },
    {
      "name": "Object_3",
      "primitives": [
        {
          "attributes": {
            "NORMAL": 13,
            "POSITION": 12,
            "TEXCOORD_0": 14
          },
          "indices": 15,
          "material": 1,
          "mode": 4
        }
      ]
    },
    {
      "name": "Object_4",
      "primitives": [
        {
          "attributes": {
            "NORMAL": 17,
            "POSITION": 16,
            "TEXCOORD_0": 18
          },
          "indices": 19,
          "material": 1,
          "mode": 4
        }
      ]
    },
    {
      "name": "Object_5",
      "primitives": [
        {
          "attributes": {
            "NORMAL": 21,
            "POSITION": 20,
            "TEXCOORD_0": 22
          },
          "indices": 23,
          "material": 1,
          "mode": 4
        }
      ]
    },
    {
      "name": "Object_6",
      "primitives": [
        {
          "attributes": {
            "NORMAL": 25,
            "POSITION": 24,
            "TEXCOORD_0": 26
          },
          "indices": 27,
          "material": 1,
          "mode": 4
        }
      ]
    },
    {
      "name": "Object_7",
      "primitives": [
        {
          "attributes": {
            "NORMAL": 29,
            "POSITION": 28,
            "TEXCOORD_0": 30
          },
          "indices": 31,
          "material": 1,
          "mode": 4
        }
      ]
    },
    {
      "name": "Object_8",
      "primitives": [
        {
          "attributes": {
            "NORMAL": 33,
            "POSITION": 32,
            "TEXCOORD_0": 34
          },
          "indices": 35,
          "material": 1,
          "mode": 4
        }
      ]
    },
    {
      "name": "Object_9",
      "primitives": [
        {
          "attributes": {
            "NORMAL": 37,
            "POSITION": 36,
            "TEXCOORD_0": 38
          },
          "indices": 39,
          "material": 1,
          "mode": 4
        }
      ]
    },
    {
      "name": "Object_10",
      "primitives": [
        {
          "attributes": {
            "NORMAL": 41,
            "POSITION": 40,
            "TEXCOORD_0": 42
          },
          "indices": 43,
          "material": 1,
          "mode": 4
        }
      ]
    },
    {
      "name": "Object_11",
      "primitives": [
        {
          "attributes": {
            "NORMAL": 45,
            "POSITION": 44,
            "TEXCOORD_0": 46
          },
          "indices": 47,
          "material": 0,
          "mode": 4
        }
      ]
    },
    {
      "name": "Object_12",
      "primitives": [
        {
          "attributes": {
            "NORMAL": 49,
            "POSITION": 48,
            "TEXCOORD_0": 50
          },
          "indices": 51,
          "material": 0,
          "mode": 4
        }
      ]
    }
  ],
  "nodes": [
    {
      "children": [
        1
      ],
      "matrix": [
        1.0,
        0.0,
        0.0,
        0.0,
        0.0,
        2.220446049250313e-16,
        -1.0,
        0.0,
        0.0,
        1.0,
        2.220446049250313e-16,
        0.0,
        0.0,
        0.0,
        0.0,
        1.0
      ],
      "name": "Sketchfab_model"
    },
    {
      "children": [
        2
      ],
      "name": "root"
    },
    {
      "children": [
        3,
        5,
        15,
        17,
        19
      ],
      "matrix": [
        1.0,
        0.0,
        0.0,
        0.0,
        0.0,
        2.220446049250313e-16,
        1.0,
        0.0,
        0.0,
        -1.0,
        2.220446049250313e-16,
        0.0,
        0.0,
        0.0,
        0.0,
        1.0
      ],
      "name": "GLTF_SceneRootNode"
    },
    {
      "children": [
        4
      ],
      "matrix": [
        1.0,
        0.0,
        0.0,
        0.0,
        0.0,
        0.7932921051979065,
        0.0,
        0.0,
        0.0,
        0.0,
        1.0,
        0.0,
        0.001122227287851274,
        -0.7452855110168457,
        0.41239818930625916,
        1.0
      ],
      "name": "Cube_2"
    },
    {
      "mesh": 0,
      "name": "Object_4"
    },
    {
      "children": [
        6,
        7,
        8,
        9,
        10,
        11,
        12,
        13,
        14
      ],
      "matrix": [
        1.0,
        0.0,
        0.0,
        0.0,
        0.0,
        1.0,
        0.0,
        0.0,
        0.0,
        0.0,
        1.0,
        0.0,
        0.0018918141722679138,
        -0.5764596462249756,
        -0.00247580511495471,
        1.0
      ],
      "name": "Plane_3"
    },
    {
      "mesh": 1,
      "name": "Object_6"
    },
    {
      "mesh": 2,
      "name": "Object_7"
    },
    {
      "mesh": 3,
      "name": "Object_8"
    },
    {
      "mesh": 4,
      "name": "Object_9"
    },
    {
      "mesh": 5,
      "name": "Object_10"
    },
    {
      "mesh": 6,
      "name": "Object_11"
    },
    {
      "mesh": 7,
      "name": "Object_12"
    },
    {
      "mesh": 8,
      "name": "Object_13"
    },
    {
      "mesh": 9,
      "name": "Object_14"
    },
    {
      "children": [
        16
      ],
      "matrix": [
        1.0,
        0.0,
        0.0,
        0.0,
        0.0,
        1.0,
        0.0,
        0.0,
        0.0,
        0.0,
        1.0,
        0.0,
        0.0,
        -0.736810564994812,
        -0.2390076220035553,
        1.0
      ],
      "name": "Cube.001_4"
    },
    {
      "mesh": 10,
      "name": "Object_16"
    },
    {
      "children": [
        18
      ],
      "matrix": [
        0.03157888352870941,
        0.0,
        0.0,
        0.0,
        0.0,
        0.12826421856880188,
        0.0,
        0.0,
        0.0,
        0.0,
        0.03157888352870941,
        0.0,
        0.8176453709602356,
        -0.8692529201507568,
        -0.34392455220222473,
        1.0
      ],
      "name": "Cube.002_5"
    },
    {
      "mesh": 11,
      "name": "Object_18"
    },
    {
      "children": [
        20
      ],
      "matrix": [
        0.03113558702170849,
        0.0,
        0.0,
        0.0,
        0.0,
        0.12646366655826569,
        0.0,
        0.0,
        0.0,
        0.0,
        0.03113558702170849,
        0.0,
        0.8176453709602356,
        -0.8716378211975098,
        0.3371722102165222,
        1.0
      ],
      "name": "Cube.003_6"
    },
    {
      "mesh": 12,
      "name": "Object_20"
    }
  ],
  "samplers": [
    {
      "magFilter": 9729,
      "minFilter": 9987,
      "wrapS": 10497,
      "wrapT": 10497
    }
  ],
  "scene": 0,
  "scenes": [
    {
      "name": "Sketchfab_Scene",
      "nodes": [
        0
      ]
    }
  ],
  "textures": [
    {
      "sampler": 0,
      "source": 0
    },
    {
      "sampler": 0,
      "source": 1
    },
    {
      "sampler": 0,
      "source": 2
    },
    {
      "sampler": 0,
      "source": 3
    }
  ]
}
